<svg xmlns="http://www.w3.org/2000/svg" viewBox="0 0 33.867 33.867" height="128" width="128"><g transform="translate(0 -263.133)"><circle r="16.702" cy="280.067" cx="16.933" fill="#ffec97"/><g fill="#394ce2"><path d="M10.73 287.415h12.595l-1.364 1.353a1.054 1.054 0 0 0 1.49 1.49l3.149-3.148a1.05 1.05 0 0 0 0-1.49l-3.149-3.149a1.05 1.05 0 0 0-1.49 0 1.05 1.05 0 0 0 0 1.49l1.364 1.354H10.73a1.637 1.637 0 0 1-1.668-1.605v-2.593a1.05 1.05 0 0 0-2.1 0v2.593a3.736 3.736 0 0 0 3.768 3.705zM10.416 277.664a1.054 1.054 0 1 0 1.49-1.49l-1.365-1.354h12.595a1.637 1.637 0 0 1 1.67 1.606v2.592a1.05 1.05 0 0 0 2.098 0v-2.592a3.736 3.736 0 0 0-3.768-3.705H10.541l1.365-1.354a1.05 1.05 0 0 0 0-1.49 1.05 1.05 0 0 0-1.49 0l-3.15 3.148a1.05 1.05 0 0 0 0 1.49z"/></g></g></svg>